<?xml version="1.0" encoding="UTF-8" standalone="no"?>
<!-- Generator: Gravit.io -->
<svg xmlns="http://www.w3.org/2000/svg" xmlns:xlink="http://www.w3.org/1999/xlink" style="isolation:isolate" viewBox="0 0 1000 1000" width="1000pt" height="1000pt"><defs><clipPath id="_clipPath_Sdk6Fary7vPYZxd20WRVIKca0qb2ogEk"><rect width="1000" height="1000"/></clipPath></defs><g clip-path="url(#_clipPath_Sdk6Fary7vPYZxd20WRVIKca0qb2ogEk)"><rect width="1000" height="1000" style="fill:rgb(0,0,0)" fill-opacity="0"/><path d=" M 483.028 563.647 L 63.713 187.183 C 59.029 182.978 55.226 174.454 55.226 168.159 L 55.226 122.542 C 55.226 116.247 60.206 109.988 66.339 108.573 L 215.181 74.225 C 221.314 72.809 226.293 76.77 226.293 83.065 L 226.293 176.92 L 352.034 147.895 C 358.167 146.479 363.147 140.219 363.147 133.925 L 363.147 51.483 C 363.147 45.189 368.126 38.93 374.259 37.514 L 488.888 11.061 C 495.021 9.646 504.979 9.646 511.112 11.061 L 625.741 37.514 C 631.874 38.93 636.853 45.189 636.853 51.483 L 636.853 133.925 C 636.853 140.219 641.833 146.479 647.966 147.895 L 773.707 176.92 L 773.707 83.065 C 773.707 76.77 778.686 72.809 784.819 74.225 L 933.661 108.573 C 939.794 109.988 944.774 116.247 944.774 122.542 L 944.774 168.159 C 944.774 174.454 940.971 182.978 936.287 187.183 L 516.972 563.647 C 507.605 572.056 492.395 572.056 483.028 563.647 Z " fill="rgb(219,45,84)"/><path d=" M 944.774 332.832 L 944.774 396.969 C 944.774 403.263 941.16 411.987 936.709 416.437 L 884.411 468.736 C 879.96 473.186 876.347 481.91 876.347 488.204 L 876.347 682.08 C 876.345 718.462 866.664 750.017 847.953 778.668 L 658.833 589.547 L 944.774 332.832 Z " fill="rgb(219,45,84)"/><path d=" M 55.226 332.832 L 55.226 385.564 C 55.226 398.153 62.453 415.6 71.355 424.501 L 107.525 460.671 C 116.426 469.573 123.653 487.02 123.653 499.609 L 123.653 682.08 C 123.655 718.462 133.336 750.017 152.047 778.668 L 341.167 589.547 L 55.226 332.832 Z " fill="rgb(219,45,84)"/><path d=" M 765.645 857.641 C 701.996 901.327 612.26 941.932 500 990 Q 500 990 500 990 C 387.74 941.932 298.004 901.327 234.355 857.641 L 427.917 664.079 C 435.604 668.703 443.74 672.579 452.215 675.636 C 467.543 681.179 483.703 684.007 500 683.996 C 516.297 684.007 532.457 681.179 547.785 675.636 C 556.261 672.579 564.396 668.703 572.083 664.079 L 765.645 857.641 Z " fill="rgb(219,45,84)"/></g></svg>