<?xml version="1.0" encoding="UTF-8" standalone="no"?>
<!-- Generator: Gravit.io -->
<svg xmlns="http://www.w3.org/2000/svg" xmlns:xlink="http://www.w3.org/1999/xlink" style="isolation:isolate" viewBox="0 0 550 100" width="550pt" height="100pt"><defs><clipPath id="_clipPath_149hCoUD5B7WkuwBr8J4229nFjYAHy2x"><rect width="550" height="100"/></clipPath></defs><g clip-path="url(#_clipPath_149hCoUD5B7WkuwBr8J4229nFjYAHy2x)"><rect width="550" height="100" style="fill:rgb(0,0,0)" fill-opacity="0"/><path d=" M 137.073 8.567 L 137.073 8.567 L 137.073 8.567 Q 147.359 8.567 153.495 10.379 L 153.495 10.379 L 153.495 10.379 Q 159.631 12.19 162.319 16.748 L 162.319 16.748 L 162.319 16.748 Q 165.007 21.307 165.007 29.605 L 165.007 29.605 L 165.007 29.605 Q 165.007 38.254 161.734 42.812 L 161.734 42.812 L 161.734 42.812 Q 158.462 47.37 150.982 48.072 L 150.982 48.072 L 150.982 48.539 L 150.982 48.539 Q 160.215 49.357 163.897 54.85 L 163.897 54.85 L 163.897 54.85 Q 167.578 60.344 167.578 70.044 L 167.578 70.044 L 167.578 70.044 Q 167.578 78.343 164.832 82.901 L 164.832 82.901 L 164.832 82.901 Q 162.085 87.459 156.183 89.271 L 156.183 89.271 L 156.183 89.271 Q 150.281 91.082 140.813 91.082 L 140.813 91.082 L 140.813 91.082 Q 133.45 91.082 127.957 91.024 L 127.957 91.024 L 127.957 91.024 Q 122.464 90.965 117.906 90.732 L 117.906 90.732 L 117.906 90.732 Q 113.347 90.498 108.439 90.147 L 108.439 90.147 L 110.075 79.511 L 110.075 79.511 Q 112.88 79.628 120.477 79.745 L 120.477 79.745 L 120.477 79.745 Q 128.074 79.862 138.359 79.862 L 138.359 79.862 L 138.359 79.862 Q 143.852 79.862 147.008 78.869 L 147.008 78.869 L 147.008 78.869 Q 150.164 77.875 151.508 75.129 L 151.508 75.129 L 151.508 75.129 Q 152.852 72.382 152.852 67.356 L 152.852 67.356 L 152.852 67.356 Q 152.852 61.746 151.449 58.766 L 151.449 58.766 L 151.449 58.766 Q 150.047 55.785 146.833 54.558 L 146.833 54.558 L 146.833 54.558 Q 143.619 53.331 137.775 53.331 L 137.775 53.331 L 109.958 53.331 L 109.958 43.396 L 137.658 43.396 L 137.658 43.396 Q 142.684 43.396 145.547 42.403 L 145.547 42.403 L 145.547 42.403 Q 148.41 41.41 149.696 38.838 L 149.696 38.838 L 149.696 38.838 Q 150.982 36.267 150.982 31.475 L 150.982 31.475 L 150.982 31.475 Q 150.982 26.683 149.638 24.112 L 149.638 24.112 L 149.638 24.112 Q 148.294 21.54 145.138 20.664 L 145.138 20.664 L 145.138 20.664 Q 141.982 19.787 136.372 19.787 L 136.372 19.787 L 136.372 19.787 Q 130.178 19.787 125.386 19.787 L 125.386 19.787 L 125.386 19.787 Q 120.594 19.787 116.854 19.846 L 116.854 19.846 L 116.854 19.846 Q 113.114 19.904 110.075 20.138 L 110.075 20.138 L 108.439 9.502 L 108.439 9.502 Q 112.88 9.035 116.912 8.859 L 116.912 8.859 L 116.912 8.859 Q 120.944 8.684 125.795 8.626 L 125.795 8.626 L 125.795 8.626 Q 130.645 8.567 137.073 8.567 Z  M 108.439 9.502 L 122.698 9.502 L 122.698 90.147 L 108.439 90.147 L 108.439 9.502 Z  M 180.902 32.761 L 195.044 32.761 L 195.044 71.564 L 195.044 71.564 Q 194.928 75.888 196.739 77.758 L 196.739 77.758 L 196.739 77.758 Q 198.551 79.628 202.641 79.628 L 202.641 79.628 L 202.641 79.628 Q 206.732 79.628 210.823 77.875 L 210.823 77.875 L 210.823 77.875 Q 214.914 76.122 220.757 72.616 L 220.757 72.616 L 222.16 81.031 L 222.16 81.031 Q 215.615 86.29 209.537 88.978 L 209.537 88.978 L 209.537 88.978 Q 203.46 91.667 196.914 91.667 L 196.914 91.667 L 196.914 91.667 Q 180.902 91.667 180.902 75.888 L 180.902 75.888 L 180.902 32.761 Z  M 219.355 32.761 L 233.497 32.761 L 233.497 90.147 L 222.277 90.147 L 220.757 79.044 L 219.355 77.408 L 219.355 32.761 Z  M 249.509 8.333 L 263.651 8.333 L 263.534 72.849 L 263.534 72.849 Q 263.534 76.122 265.404 77.817 L 265.404 77.817 L 265.404 77.817 Q 267.274 79.511 270.781 79.511 L 270.781 79.511 L 275.806 79.511 L 277.443 89.446 L 277.443 89.446 Q 276.157 90.03 273.878 90.498 L 273.878 90.498 L 273.878 90.498 Q 271.599 90.965 269.203 91.141 L 269.203 91.141 L 269.203 91.141 Q 266.807 91.316 265.054 91.316 L 265.054 91.316 L 265.054 91.316 Q 257.924 91.316 253.717 87.459 L 253.717 87.459 L 253.717 87.459 Q 249.509 83.602 249.509 76.356 L 249.509 76.356 L 249.509 8.333 Z  M 357.854 32.761 L 372.23 32.761 L 357.036 86.407 L 357.036 86.407 Q 356.569 88.043 355.166 89.095 L 355.166 89.095 L 355.166 89.095 Q 353.763 90.147 351.893 90.147 L 351.893 90.147 L 340.556 90.147 L 340.556 90.147 Q 338.686 90.147 337.167 88.978 L 337.167 88.978 L 337.167 88.978 Q 335.647 87.81 335.414 85.823 L 335.414 85.823 L 327.817 50.643 L 327.817 50.643 Q 327.349 48.305 327.057 45.968 L 327.057 45.968 L 327.057 45.968 Q 326.765 43.63 326.297 41.293 L 326.297 41.293 L 324.778 41.293 L 324.778 41.293 Q 324.427 43.63 324.018 45.968 L 324.018 45.968 L 324.018 45.968 Q 323.609 48.305 323.142 50.643 L 323.142 50.643 L 315.662 85.823 L 315.662 85.823 Q 315.311 87.81 313.85 88.978 L 313.85 88.978 L 313.85 88.978 Q 312.389 90.147 310.402 90.147 L 310.402 90.147 L 299.182 90.147 L 299.182 90.147 Q 297.312 90.147 295.909 89.095 L 295.909 89.095 L 295.909 89.095 Q 294.507 88.043 294.156 86.407 L 294.156 86.407 L 278.845 32.761 L 293.221 32.761 L 302.805 72.148 L 302.805 72.148 Q 303.273 74.369 303.682 76.648 L 303.682 76.648 L 303.682 76.648 Q 304.091 78.927 304.441 81.148 L 304.441 81.148 L 305.844 81.148 L 305.844 81.148 Q 306.428 78.927 306.837 76.648 L 306.837 76.648 L 306.837 76.648 Q 307.246 74.369 307.714 72.148 L 307.714 72.148 L 315.311 37.085 L 315.311 37.085 Q 315.662 35.215 317.006 33.988 L 317.006 33.988 L 317.006 33.988 Q 318.35 32.761 320.453 32.761 L 320.453 32.761 L 330.739 32.761 L 330.739 32.761 Q 332.609 32.761 334.011 33.988 L 334.011 33.988 L 334.011 33.988 Q 335.414 35.215 335.764 37.202 L 335.764 37.202 L 343.361 72.148 L 343.361 72.148 Q 343.712 74.369 344.238 76.59 L 344.238 76.59 L 344.238 76.59 Q 344.764 78.81 345.115 81.148 L 345.115 81.148 L 346.517 81.148 L 346.517 81.148 Q 346.985 78.81 347.335 76.648 L 347.335 76.648 L 347.335 76.648 Q 347.686 74.486 348.27 72.148 L 348.27 72.148 L 357.854 32.761 Z  M 410.916 31.358 L 410.916 31.358 L 410.916 31.358 Q 417.812 31.358 422.604 33.17 L 422.604 33.17 L 422.604 33.17 Q 427.396 34.981 429.792 39.306 L 429.792 39.306 L 429.792 39.306 Q 432.188 43.63 432.188 51.227 L 432.188 51.227 L 432.188 90.147 L 420.968 90.147 L 418.981 77.758 L 417.929 76.122 L 417.929 51.11 L 417.929 51.11 Q 417.929 46.552 415.825 44.507 L 415.825 44.507 L 415.825 44.507 Q 413.721 42.461 407.761 42.461 L 407.761 42.461 L 407.761 42.461 Q 403.319 42.461 396.599 42.812 L 396.599 42.812 L 396.599 42.812 Q 389.878 43.163 383.1 43.747 L 383.1 43.747 L 381.814 34.046 L 381.814 34.046 Q 385.905 33.228 391.047 32.644 L 391.047 32.644 L 391.047 32.644 Q 396.19 32.059 401.449 31.709 L 401.449 31.709 L 401.449 31.709 Q 406.709 31.358 410.916 31.358 Z  M 395.839 54.85 L 426.11 54.85 L 425.993 63.616 L 399.696 63.616 L 399.696 63.616 Q 396.19 63.733 394.67 65.486 L 394.67 65.486 L 394.67 65.486 Q 393.151 67.239 393.151 70.278 L 393.151 70.278 L 393.151 73.434 L 393.151 73.434 Q 393.151 76.94 395.021 78.693 L 395.021 78.693 L 395.021 78.693 Q 396.891 80.446 400.865 80.446 L 400.865 80.446 L 400.865 80.446 Q 404.021 80.446 407.878 79.219 L 407.878 79.219 L 407.878 79.219 Q 411.734 77.992 415.533 75.538 L 415.533 75.538 L 415.533 75.538 Q 419.331 73.083 422.37 69.694 L 422.37 69.694 L 422.37 77.057 L 422.37 77.057 Q 421.202 78.81 418.981 81.206 L 418.981 81.206 L 418.981 81.206 Q 416.76 83.602 413.546 85.94 L 413.546 85.94 L 413.546 85.94 Q 410.332 88.277 406.183 89.797 L 406.183 89.797 L 406.183 89.797 Q 402.034 91.316 397.008 91.316 L 397.008 91.316 L 397.008 91.316 Q 391.865 91.316 387.775 89.504 L 387.775 89.504 L 387.775 89.504 Q 383.684 87.693 381.346 84.128 L 381.346 84.128 L 381.346 84.128 Q 379.009 80.563 379.009 75.304 L 379.009 75.304 L 379.009 69.226 L 379.009 69.226 Q 379.009 62.447 383.509 58.649 L 383.509 58.649 L 383.509 58.649 Q 388.008 54.85 395.839 54.85 L 395.839 54.85 Z  M 447.616 32.761 L 458.602 32.761 L 460.472 43.981 L 461.758 45.617 L 461.758 90.147 L 447.616 90.147 L 447.616 32.761 Z  M 483.848 31.358 L 486.653 31.358 L 485.25 44.448 L 481.159 44.448 L 481.159 44.448 Q 476.601 44.448 471.926 45.968 L 471.926 45.968 L 471.926 45.968 Q 467.251 47.487 460.238 50.526 L 460.238 50.526 L 459.303 42.228 L 459.303 42.228 Q 465.381 37.085 471.692 34.222 L 471.692 34.222 L 471.692 34.222 Q 478.004 31.358 483.848 31.358 L 483.848 31.358 Z  M 532.118 32.761 L 548.13 32.761 L 531.767 53.214 L 531.767 53.214 Q 530.832 54.617 529.43 55.961 L 529.43 55.961 L 529.43 55.961 Q 528.027 57.305 526.975 58.006 L 526.975 58.006 L 526.975 58.24 L 526.975 58.24 Q 528.027 58.941 529.43 60.519 L 529.43 60.519 L 529.43 60.519 Q 530.832 62.097 531.767 63.733 L 531.767 63.733 L 550 90.147 L 533.988 90.147 L 513.067 57.655 L 532.118 32.761 Z  M 496.237 8.333 L 510.379 8.333 L 510.496 43.28 L 510.496 43.28 Q 510.496 47.137 510.086 50.643 L 510.086 50.643 L 510.086 50.643 Q 509.677 54.149 508.976 57.772 L 508.976 57.772 L 508.976 57.772 Q 509.561 61.162 509.97 64.785 L 509.97 64.785 L 509.97 64.785 Q 510.379 68.408 510.379 71.564 L 510.379 71.564 L 510.379 90.147 L 496.237 90.147 L 496.237 8.333 Z  M 505.82 53.448 L 519.144 53.448 L 519.144 62.564 L 505.82 62.564 L 505.82 53.448 Z " fill="rgb(41,42,57)"/><path d=" M 32.474 55.842 L 0 26.686 L 0 38.323 C 0 39.607 0.737 41.388 1.646 42.296 L 5.337 45.987 C 6.245 46.895 6.982 48.676 6.982 49.96 L 6.982 68.58 C 6.983 72.292 7.97 75.512 9.88 78.435 L 32.474 55.842 Z " fill="rgb(219,45,84)"/><path d=" M 58.297 55.842 L 90.77 26.686 L 90.77 39.487 C 90.77 40.129 90.401 41.019 89.947 41.473 L 84.611 46.81 C 84.157 47.264 83.788 48.154 83.788 48.796 L 83.788 68.58 C 83.788 72.292 82.8 75.512 80.89 78.435 L 58.297 55.842 Z " fill="rgb(219,45,84)"/><path d=" M 45.385 64.157 L 45.385 64.157 C 41.937 64.157 40.166 62.787 37.676 60.514 L 14.549 83.64 C 21.036 89.248 31.529 94.067 45.385 100 Q 45.385 100 45.385 100 C 59.241 94.067 69.734 89.248 76.221 83.64 L 53.094 60.514 C 50.604 62.787 48.833 64.157 45.385 64.157 Z " fill="rgb(219,45,84)"/><path d=" M 43.653 56.495 L 0.866 18.08 C 0.388 17.651 0 16.781 0 16.139 L 0 11.484 C 0 10.842 0.508 10.203 1.134 10.058 L 16.322 6.554 C 16.948 6.409 17.456 6.813 17.456 7.456 L 17.456 17.033 L 30.287 14.071 C 30.912 13.926 31.42 13.288 31.42 12.645 L 31.42 4.233 C 31.42 3.591 31.929 2.952 32.554 2.808 L 44.251 0.108 C 44.877 -0.036 45.893 -0.036 46.519 0.108 L 58.216 2.808 C 58.842 2.952 59.35 3.591 59.35 4.233 L 59.35 12.645 C 59.35 13.288 59.858 13.926 60.484 14.071 L 73.314 17.033 L 73.314 7.456 C 73.314 6.813 73.822 6.409 74.448 6.554 L 89.636 10.058 C 90.262 10.203 90.77 10.842 90.77 11.484 L 90.77 16.139 C 90.77 16.781 90.382 17.651 89.904 18.08 L 47.117 56.495 C 46.161 57.353 44.609 57.353 43.653 56.495 Z " fill="rgb(219,45,84)"/></g></svg>