<?xml version="1.0" encoding="UTF-8" standalone="no"?>
<!-- Generator: Gravit.io -->
<svg xmlns="http://www.w3.org/2000/svg" xmlns:xlink="http://www.w3.org/1999/xlink" style="isolation:isolate" viewBox="0 0 575 100" width="575pt" height="100pt"><defs><clipPath id="_clipPath_tRqI7Pi5JOtjSCZKIo2KPGNFw5Kmpwip"><rect width="575" height="100"/></clipPath></defs><g clip-path="url(#_clipPath_tRqI7Pi5JOtjSCZKIo2KPGNFw5Kmpwip)"><rect width="575" height="100" style="fill:rgb(0,0,0)" fill-opacity="0"/><path d=" M 47.801 0.312 C 51.913 1.504 55.956 2.688 60.003 3.858 C 61.635 4.33 61.683 4.371 61.686 6.042 C 61.692 9.055 61.705 12.068 61.694 15.081 C 61.692 15.566 61.796 15.832 62.32 15.979 C 66.861 17.259 71.392 18.571 75.927 19.87 C 76.031 19.9 76.143 19.9 76.338 19.925 C 76.338 19.56 76.337 19.232 76.338 18.903 C 76.34 15.975 76.336 13.046 76.346 10.118 C 76.35 9.007 76.766 8.637 77.807 8.933 C 82.48 10.261 87.142 11.627 91.811 12.969 C 92.394 13.136 92.608 13.476 92.592 14.08 C 92.554 15.487 92.537 16.897 92.58 18.303 C 92.598 18.893 92.412 19.303 92.026 19.682 C 91.979 19.728 91.929 19.774 91.877 19.82 C 85.823 25.041 79.78 30.274 73.741 35.511 C 65.681 42.5 57.626 49.494 49.572 56.49 C 48.368 57.535 47.085 58.46 45.4 57.904 C 44.598 57.64 43.816 57.154 43.172 56.599 C 37.397 51.618 31.663 46.589 25.898 41.595 C 18.645 35.311 11.372 29.049 4.113 22.772 C 2.921 21.742 1.729 20.708 0.593 19.617 C 0.29 19.327 0.049 18.827 0.03 18.412 C -0.036 16.979 0.031 15.54 0.003 14.105 C -0.01 13.456 0.264 13.131 0.866 12.957 C 1.933 12.648 11.148 9.958 14.695 8.945 C 15.85 8.615 16.234 8.966 16.236 10.194 C 16.241 13.151 16.238 16.108 16.237 19.064 C 16.237 19.339 16.237 19.615 16.237 19.969 C 18.39 19.368 20.468 18.798 22.541 18.207 C 25.078 17.483 27.605 16.72 30.15 16.026 C 30.773 15.856 30.904 15.551 30.899 14.962 C 30.874 11.836 30.919 8.71 30.872 5.585 C 30.858 4.686 31.194 4.271 32.029 4.03 C 36.616 2.71 41.184 1.326 45.782 0.045 C 46.363 -0.117 47.079 0.201 47.801 0.312 L 47.801 0.312 Z " fill="rgb(219,45,84)"/><path d=" M 14.712 83.798 C 15.299 84.36 15.917 84.935 16.566 85.474 C 21.023 89.169 26.155 91.705 31.475 94.038 C 36.124 95.963 40.717 97.853 45.302 99.764 C 45.904 100.016 46.453 100.103 47.079 99.84 C 52.743 97.455 58.443 95.153 64.074 92.69 C 68.307 90.839 72.311 88.544 75.902 85.607 C 76.616 85.024 77.289 84.391 77.924 83.778 L 54.282 59.76 L 53.259 60.648 C 52.537 61.296 51.75 61.88 50.907 62.37 C 49.556 63.176 48.019 63.602 46.444 63.63 C 45.481 63.63 44.519 63.472 43.602 63.157 C 42.093 62.639 40.713 61.833 39.519 60.778 C 39.122 60.436 38.725 60.094 38.329 59.752 L 14.712 83.798 Z " fill="rgb(219,45,84)"/><path d=" M 34.138 56.127 C 26.454 63.956 18.787 71.767 11.016 79.685 C 10.503 78.902 10.073 78.327 9.727 77.705 C 7.892 74.401 6.962 70.9 6.999 67.072 C 7.095 57.082 7.062 64.683 7.025 54.693 C 7.023 54.134 6.636 53.467 6.229 53.039 C 4.585 51.303 2.891 49.612 1.158 47.965 C 0.337 47.185 -0.018 46.308 0.016 45.199 Q 0.021 45.04 0.029 26.581 C 0.184 26.72 0.342 26.855 0.5 26.991 L 9.37 34.648 L 22.259 45.796 L 29.546 52.12 C 31.076 53.457 32.607 54.792 34.138 56.127 Z " fill="rgb(219,45,84)"/><path d=" M 58.507 56.093 Q 70.011 67.821 75.787 73.707 L 75.787 73.707 C 77.747 75.688 79.664 77.628 81.643 79.63 C 84.158 76.069 85.555 72.287 85.552 68.04 C 85.545 57.819 85.532 65.191 85.497 54.97 C 85.494 54.205 85.727 53.628 86.265 53.101 C 88.055 51.348 89.836 49.584 91.587 47.792 C 91.965 47.405 92.434 46.896 92.466 46.417 C 92.515 45.681 92.525 27.351 92.525 26.603 L 77.38 39.713 L 58.507 56.093 Z " fill="rgb(219,45,84)"/><path d=" M 47.801 0.312 C 51.913 1.504 55.956 2.688 60.003 3.858 C 61.635 4.33 61.683 4.371 61.686 6.042 C 61.692 9.055 61.705 12.068 61.694 15.081 C 61.692 15.566 61.796 15.832 62.32 15.979 C 66.861 17.259 71.392 18.571 75.927 19.87 C 76.031 19.9 76.143 19.9 76.338 19.925 C 76.338 19.56 76.337 19.232 76.338 18.903 C 76.34 15.975 76.336 13.046 76.346 10.118 C 76.35 9.007 76.766 8.637 77.807 8.933 C 82.48 10.261 87.142 11.627 91.811 12.969 C 92.394 13.136 92.608 13.476 92.592 14.08 C 92.554 15.487 92.537 16.897 92.58 18.303 C 92.598 18.893 92.412 19.303 92.026 19.682 C 91.979 19.728 91.929 19.774 91.877 19.82 C 85.823 25.041 79.78 30.274 73.741 35.511 C 65.681 42.5 57.626 49.494 49.572 56.49 C 48.368 57.535 47.085 58.46 45.4 57.904 C 44.598 57.64 43.816 57.154 43.172 56.599 C 37.397 51.618 31.663 46.589 25.898 41.595 C 18.645 35.311 11.372 29.049 4.113 22.772 C 2.921 21.742 1.729 20.708 0.593 19.617 C 0.29 19.327 0.049 18.827 0.03 18.412 C -0.036 16.979 0.031 15.54 0.003 14.105 C -0.01 13.456 0.264 13.131 0.866 12.957 C 1.933 12.648 11.148 9.958 14.695 8.945 C 15.85 8.615 16.234 8.966 16.236 10.194 C 16.241 13.151 16.238 16.108 16.237 19.064 C 16.237 19.339 16.237 19.615 16.237 19.969 C 18.39 19.368 20.468 18.798 22.541 18.207 C 25.078 17.483 27.605 16.72 30.15 16.026 C 30.773 15.856 30.904 15.551 30.899 14.962 C 30.874 11.836 30.919 8.71 30.872 5.585 C 30.858 4.686 31.194 4.271 32.029 4.03 C 36.616 2.71 41.184 1.326 45.782 0.045 C 46.363 -0.117 47.079 0.201 47.801 0.312 Z " fill="rgb(219,45,84)"/><path d=" M 162.073 8.567 L 162.073 8.567 L 162.073 8.567 Q 172.359 8.567 178.495 10.379 L 178.495 10.379 L 178.495 10.379 Q 184.631 12.19 187.319 16.748 L 187.319 16.748 L 187.319 16.748 Q 190.007 21.307 190.007 29.605 L 190.007 29.605 L 190.007 29.605 Q 190.007 38.254 186.734 42.812 L 186.734 42.812 L 186.734 42.812 Q 183.462 47.37 175.982 48.072 L 175.982 48.072 L 175.982 48.539 L 175.982 48.539 Q 185.215 49.357 188.897 54.85 L 188.897 54.85 L 188.897 54.85 Q 192.578 60.344 192.578 70.044 L 192.578 70.044 L 192.578 70.044 Q 192.578 78.343 189.832 82.901 L 189.832 82.901 L 189.832 82.901 Q 187.085 87.459 181.183 89.271 L 181.183 89.271 L 181.183 89.271 Q 175.281 91.082 165.813 91.082 L 165.813 91.082 L 165.813 91.082 Q 158.45 91.082 152.957 91.024 L 152.957 91.024 L 152.957 91.024 Q 147.464 90.965 142.906 90.732 L 142.906 90.732 L 142.906 90.732 Q 138.347 90.498 133.439 90.147 L 133.439 90.147 L 135.075 79.511 L 135.075 79.511 Q 137.88 79.628 145.477 79.745 L 145.477 79.745 L 145.477 79.745 Q 153.074 79.862 163.359 79.862 L 163.359 79.862 L 163.359 79.862 Q 168.852 79.862 172.008 78.869 L 172.008 78.869 L 172.008 78.869 Q 175.164 77.875 176.508 75.129 L 176.508 75.129 L 176.508 75.129 Q 177.852 72.382 177.852 67.356 L 177.852 67.356 L 177.852 67.356 Q 177.852 61.746 176.449 58.766 L 176.449 58.766 L 176.449 58.766 Q 175.047 55.785 171.833 54.558 L 171.833 54.558 L 171.833 54.558 Q 168.619 53.331 162.775 53.331 L 162.775 53.331 L 134.958 53.331 L 134.958 43.396 L 162.658 43.396 L 162.658 43.396 Q 167.683 43.396 170.547 42.403 L 170.547 42.403 L 170.547 42.403 Q 173.41 41.41 174.696 38.838 L 174.696 38.838 L 174.696 38.838 Q 175.982 36.267 175.982 31.475 L 175.982 31.475 L 175.982 31.475 Q 175.982 26.683 174.638 24.112 L 174.638 24.112 L 174.638 24.112 Q 173.294 21.54 170.138 20.664 L 170.138 20.664 L 170.138 20.664 Q 166.982 19.787 161.372 19.787 L 161.372 19.787 L 161.372 19.787 Q 155.178 19.787 150.386 19.787 L 150.386 19.787 L 150.386 19.787 Q 145.594 19.787 141.854 19.846 L 141.854 19.846 L 141.854 19.846 Q 138.114 19.904 135.075 20.138 L 135.075 20.138 L 133.439 9.502 L 133.439 9.502 Q 137.88 9.035 141.912 8.859 L 141.912 8.859 L 141.912 8.859 Q 145.944 8.684 150.795 8.626 L 150.795 8.626 L 150.795 8.626 Q 155.645 8.567 162.073 8.567 Z  M 133.439 9.502 L 147.698 9.502 L 147.698 90.147 L 133.439 90.147 L 133.439 9.502 Z  M 205.902 32.761 L 220.044 32.761 L 220.044 71.564 L 220.044 71.564 Q 219.928 75.888 221.739 77.758 L 221.739 77.758 L 221.739 77.758 Q 223.551 79.628 227.641 79.628 L 227.641 79.628 L 227.641 79.628 Q 231.732 79.628 235.823 77.875 L 235.823 77.875 L 235.823 77.875 Q 239.914 76.122 245.757 72.616 L 245.757 72.616 L 247.16 81.031 L 247.16 81.031 Q 240.615 86.29 234.537 88.978 L 234.537 88.978 L 234.537 88.978 Q 228.46 91.667 221.914 91.667 L 221.914 91.667 L 221.914 91.667 Q 205.902 91.667 205.902 75.888 L 205.902 75.888 L 205.902 32.761 Z  M 244.355 32.761 L 258.497 32.761 L 258.497 90.147 L 247.277 90.147 L 245.757 79.044 L 244.355 77.408 L 244.355 32.761 Z  M 274.509 8.333 L 288.651 8.333 L 288.534 72.849 L 288.534 72.849 Q 288.534 76.122 290.404 77.817 L 290.404 77.817 L 290.404 77.817 Q 292.274 79.511 295.781 79.511 L 295.781 79.511 L 300.806 79.511 L 302.443 89.446 L 302.443 89.446 Q 301.157 90.03 298.878 90.498 L 298.878 90.498 L 298.878 90.498 Q 296.599 90.965 294.203 91.141 L 294.203 91.141 L 294.203 91.141 Q 291.807 91.316 290.054 91.316 L 290.054 91.316 L 290.054 91.316 Q 282.924 91.316 278.717 87.459 L 278.717 87.459 L 278.717 87.459 Q 274.509 83.602 274.509 76.356 L 274.509 76.356 L 274.509 8.333 Z  M 382.854 32.761 L 397.23 32.761 L 382.036 86.407 L 382.036 86.407 Q 381.568 88.043 380.166 89.095 L 380.166 89.095 L 380.166 89.095 Q 378.763 90.147 376.893 90.147 L 376.893 90.147 L 365.556 90.147 L 365.556 90.147 Q 363.686 90.147 362.167 88.978 L 362.167 88.978 L 362.167 88.978 Q 360.647 87.81 360.414 85.823 L 360.414 85.823 L 352.817 50.643 L 352.817 50.643 Q 352.349 48.305 352.057 45.968 L 352.057 45.968 L 352.057 45.968 Q 351.765 43.63 351.297 41.293 L 351.297 41.293 L 349.778 41.293 L 349.778 41.293 Q 349.427 43.63 349.018 45.968 L 349.018 45.968 L 349.018 45.968 Q 348.609 48.305 348.142 50.643 L 348.142 50.643 L 340.662 85.823 L 340.662 85.823 Q 340.311 87.81 338.85 88.978 L 338.85 88.978 L 338.85 88.978 Q 337.389 90.147 335.402 90.147 L 335.402 90.147 L 324.182 90.147 L 324.182 90.147 Q 322.312 90.147 320.909 89.095 L 320.909 89.095 L 320.909 89.095 Q 319.507 88.043 319.156 86.407 L 319.156 86.407 L 303.845 32.761 L 318.221 32.761 L 327.805 72.148 L 327.805 72.148 Q 328.273 74.369 328.682 76.648 L 328.682 76.648 L 328.682 76.648 Q 329.091 78.927 329.441 81.148 L 329.441 81.148 L 330.844 81.148 L 330.844 81.148 Q 331.428 78.927 331.837 76.648 L 331.837 76.648 L 331.837 76.648 Q 332.246 74.369 332.714 72.148 L 332.714 72.148 L 340.311 37.085 L 340.311 37.085 Q 340.662 35.215 342.006 33.988 L 342.006 33.988 L 342.006 33.988 Q 343.35 32.761 345.453 32.761 L 345.453 32.761 L 355.739 32.761 L 355.739 32.761 Q 357.609 32.761 359.011 33.988 L 359.011 33.988 L 359.011 33.988 Q 360.414 35.215 360.764 37.202 L 360.764 37.202 L 368.361 72.148 L 368.361 72.148 Q 368.712 74.369 369.238 76.59 L 369.238 76.59 L 369.238 76.59 Q 369.764 78.81 370.115 81.148 L 370.115 81.148 L 371.517 81.148 L 371.517 81.148 Q 371.985 78.81 372.335 76.648 L 372.335 76.648 L 372.335 76.648 Q 372.686 74.486 373.27 72.148 L 373.27 72.148 L 382.854 32.761 Z  M 435.916 31.358 L 435.916 31.358 L 435.916 31.358 Q 442.812 31.358 447.604 33.17 L 447.604 33.17 L 447.604 33.17 Q 452.396 34.981 454.792 39.306 L 454.792 39.306 L 454.792 39.306 Q 457.188 43.63 457.188 51.227 L 457.188 51.227 L 457.188 90.147 L 445.968 90.147 L 443.981 77.758 L 442.929 76.122 L 442.929 51.11 L 442.929 51.11 Q 442.929 46.552 440.825 44.507 L 440.825 44.507 L 440.825 44.507 Q 438.721 42.461 432.761 42.461 L 432.761 42.461 L 432.761 42.461 Q 428.319 42.461 421.599 42.812 L 421.599 42.812 L 421.599 42.812 Q 414.878 43.163 408.1 43.747 L 408.1 43.747 L 406.814 34.046 L 406.814 34.046 Q 410.905 33.228 416.047 32.644 L 416.047 32.644 L 416.047 32.644 Q 421.19 32.059 426.449 31.709 L 426.449 31.709 L 426.449 31.709 Q 431.709 31.358 435.916 31.358 Z  M 420.839 54.85 L 451.11 54.85 L 450.993 63.616 L 424.696 63.616 L 424.696 63.616 Q 421.19 63.733 419.67 65.486 L 419.67 65.486 L 419.67 65.486 Q 418.151 67.239 418.151 70.278 L 418.151 70.278 L 418.151 73.434 L 418.151 73.434 Q 418.151 76.94 420.021 78.693 L 420.021 78.693 L 420.021 78.693 Q 421.891 80.446 425.865 80.446 L 425.865 80.446 L 425.865 80.446 Q 429.021 80.446 432.878 79.219 L 432.878 79.219 L 432.878 79.219 Q 436.734 77.992 440.533 75.538 L 440.533 75.538 L 440.533 75.538 Q 444.331 73.083 447.37 69.694 L 447.37 69.694 L 447.37 77.057 L 447.37 77.057 Q 446.201 78.81 443.981 81.206 L 443.981 81.206 L 443.981 81.206 Q 441.76 83.602 438.546 85.94 L 438.546 85.94 L 438.546 85.94 Q 435.332 88.277 431.183 89.797 L 431.183 89.797 L 431.183 89.797 Q 427.034 91.316 422.008 91.316 L 422.008 91.316 L 422.008 91.316 Q 416.865 91.316 412.775 89.504 L 412.775 89.504 L 412.775 89.504 Q 408.684 87.693 406.346 84.128 L 406.346 84.128 L 406.346 84.128 Q 404.009 80.563 404.009 75.304 L 404.009 75.304 L 404.009 69.226 L 404.009 69.226 Q 404.009 62.447 408.509 58.649 L 408.509 58.649 L 408.509 58.649 Q 413.008 54.85 420.839 54.85 L 420.839 54.85 Z  M 472.616 32.761 L 483.602 32.761 L 485.472 43.981 L 486.758 45.617 L 486.758 90.147 L 472.616 90.147 L 472.616 32.761 Z  M 508.848 31.358 L 511.653 31.358 L 510.25 44.448 L 506.159 44.448 L 506.159 44.448 Q 501.601 44.448 496.926 45.968 L 496.926 45.968 L 496.926 45.968 Q 492.251 47.487 485.238 50.526 L 485.238 50.526 L 484.303 42.228 L 484.303 42.228 Q 490.381 37.085 496.692 34.222 L 496.692 34.222 L 496.692 34.222 Q 503.004 31.358 508.848 31.358 L 508.848 31.358 Z  M 557.118 32.761 L 573.13 32.761 L 556.767 53.214 L 556.767 53.214 Q 555.832 54.617 554.43 55.961 L 554.43 55.961 L 554.43 55.961 Q 553.027 57.305 551.975 58.006 L 551.975 58.006 L 551.975 58.24 L 551.975 58.24 Q 553.027 58.941 554.43 60.519 L 554.43 60.519 L 554.43 60.519 Q 555.832 62.097 556.767 63.733 L 556.767 63.733 L 575 90.147 L 558.988 90.147 L 538.067 57.655 L 557.118 32.761 Z  M 521.237 8.333 L 535.379 8.333 L 535.496 43.28 L 535.496 43.28 Q 535.496 47.137 535.086 50.643 L 535.086 50.643 L 535.086 50.643 Q 534.677 54.149 533.976 57.772 L 533.976 57.772 L 533.976 57.772 Q 534.561 61.162 534.97 64.785 L 534.97 64.785 L 534.97 64.785 Q 535.379 68.408 535.379 71.564 L 535.379 71.564 L 535.379 90.147 L 521.237 90.147 L 521.237 8.333 Z  M 530.82 53.448 L 544.144 53.448 L 544.144 62.564 L 530.82 62.564 L 530.82 53.448 Z " fill="rgb(255,255,255)"/></g></svg>