<?xml version="1.0" encoding="UTF-8" standalone="no"?>
<!-- Generator: Gravit.io -->
<svg xmlns="http://www.w3.org/2000/svg" xmlns:xlink="http://www.w3.org/1999/xlink" style="isolation:isolate" viewBox="0 0 100 108" width="100pt" height="108pt"><defs><clipPath id="_clipPath_hzCuHPCSrAoyOxe8K64tWCiaHU0nkcGZ"><rect width="100" height="108"/></clipPath></defs><g clip-path="url(#_clipPath_hzCuHPCSrAoyOxe8K64tWCiaHU0nkcGZ)"><path d=" M 51.625 0.337 C 56.066 1.625 60.433 2.903 64.803 4.167 C 66.565 4.676 66.617 4.721 66.621 6.525 C 66.628 9.779 66.642 13.033 66.629 16.287 C 66.627 16.811 66.74 17.098 67.306 17.258 C 72.209 18.64 77.103 20.056 82.001 21.46 C 82.113 21.492 82.235 21.492 82.445 21.519 C 82.445 21.124 82.444 20.77 82.445 20.416 C 82.447 17.253 82.443 14.09 82.454 10.927 C 82.458 9.728 82.907 9.328 84.031 9.648 C 89.078 11.082 94.114 12.557 99.156 14.006 C 99.785 14.187 100.017 14.554 99.999 15.207 C 99.958 16.726 99.94 18.249 99.986 19.768 C 100.006 20.405 99.804 20.847 99.388 21.257 C 99.338 21.307 99.284 21.356 99.227 21.405 C 92.689 27.044 86.163 32.695 79.64 38.352 C 70.936 45.9 62.236 53.454 53.538 61.009 C 52.238 62.138 50.852 63.137 49.032 62.537 C 48.166 62.251 47.322 61.727 46.626 61.127 C 40.388 55.747 34.196 50.316 27.97 44.922 C 20.137 38.136 12.282 31.373 4.442 24.594 C 3.155 23.481 1.867 22.365 0.64 21.187 C 0.313 20.873 0.053 20.333 0.032 19.885 C -0.038 18.337 0.034 16.784 0.003 15.233 C -0.011 14.533 0.286 14.181 0.936 13.993 C 2.088 13.66 12.04 10.754 15.871 9.661 C 17.118 9.305 17.533 9.683 17.535 11.01 C 17.541 14.203 17.537 17.396 17.536 20.589 C 17.536 20.887 17.536 21.184 17.536 21.567 C 19.861 20.918 22.106 20.301 24.344 19.663 C 27.084 18.882 29.813 18.058 32.562 17.308 C 33.235 17.124 33.377 16.796 33.371 16.159 C 33.344 12.783 33.393 9.407 33.341 6.032 C 33.327 5.061 33.689 4.612 34.591 4.353 C 39.545 2.927 44.479 1.432 49.444 0.049 C 50.073 -0.126 50.845 0.217 51.625 0.337 Z " fill="rgb(219,45,84)"/><path d=" M 36.869 60.617 C 28.57 69.072 20.29 77.508 11.897 86.059 C 11.344 85.215 10.879 84.593 10.506 83.921 C 8.524 80.353 7.519 76.573 7.559 72.437 C 7.662 61.648 7.627 60.858 7.587 50.068 C 7.584 49.465 7.166 48.745 6.728 48.282 C 4.952 46.408 3.122 44.581 1.25 42.802 C 0.364 41.96 -0.02 41.013 0.017 39.815 Q 0.022 39.643 0.031 28.708 C 0.199 28.857 0.369 29.004 0.54 29.15 L 10.12 37.42 L 24.04 49.46 L 31.91 56.29 C 33.562 57.734 35.215 59.176 36.869 60.617 Z " fill="rgb(219,45,84)"/><path d=" M 15.888 90.502 C 16.523 91.108 17.19 91.73 17.891 92.312 C 22.704 96.303 28.248 99.042 33.993 101.561 C 39.014 103.64 43.975 105.681 48.926 107.746 C 49.577 108.017 50.169 108.112 50.845 107.827 C 56.963 105.251 63.119 102.765 69.2 100.106 C 73.771 98.106 78.095 95.627 81.974 92.456 C 82.745 91.826 83.472 91.142 84.158 90.48 L 58.625 64.541 L 57.52 65.5 C 56.74 66.2 55.89 66.83 54.98 67.36 C 53.52 68.23 51.86 68.69 50.16 68.72 C 49.12 68.72 48.08 68.55 47.09 68.21 C 45.46 67.65 43.97 66.78 42.68 65.64 C 42.252 65.271 41.823 64.902 41.395 64.532 L 15.888 90.502 Z " fill="rgb(219,45,84)"/><path d=" M 63.188 60.581 Q 75.612 73.246 81.85 79.604 L 81.85 79.604 C 83.967 81.744 86.037 83.839 88.174 86 C 90.891 82.155 92.399 78.07 92.396 73.484 C 92.388 62.445 92.374 61.406 92.336 50.368 C 92.333 49.541 92.585 48.918 93.166 48.349 C 95.099 46.455 97.023 44.551 98.914 42.616 C 99.323 42.197 99.828 41.648 99.863 41.13 C 99.916 40.336 99.927 29.539 99.926 28.731 L 83.57 42.89 L 63.188 60.581 Z " fill="rgb(219,45,84)"/><path d=" M 51.625 0.337 C 56.066 1.625 60.433 2.903 64.803 4.167 C 66.565 4.676 66.617 4.721 66.621 6.525 C 66.628 9.779 66.642 13.033 66.629 16.287 C 66.627 16.811 66.74 17.098 67.306 17.258 C 72.209 18.64 77.103 20.056 82.001 21.46 C 82.113 21.492 82.235 21.492 82.445 21.519 C 82.445 21.124 82.444 20.77 82.445 20.416 C 82.447 17.253 82.443 14.09 82.454 10.927 C 82.458 9.728 82.907 9.328 84.031 9.648 C 89.078 11.082 94.114 12.557 99.156 14.006 C 99.785 14.187 100.017 14.554 99.999 15.207 C 99.958 16.726 99.94 18.249 99.986 19.768 C 100.006 20.405 99.804 20.847 99.388 21.257 C 99.338 21.307 99.284 21.356 99.227 21.405 C 92.689 27.044 86.163 32.695 79.64 38.352 C 70.936 45.9 62.236 53.454 53.538 61.009 C 52.238 62.138 50.852 63.137 49.032 62.537 C 48.166 62.251 47.322 61.727 46.626 61.127 C 40.388 55.747 34.196 50.316 27.97 44.922 C 20.137 38.136 12.282 31.373 4.442 24.594 C 3.155 23.481 1.867 22.365 0.64 21.187 C 0.313 20.873 0.053 20.333 0.032 19.885 C -0.038 18.337 0.034 16.784 0.003 15.233 C -0.011 14.533 0.286 14.181 0.936 13.993 C 2.088 13.66 12.04 10.754 15.871 9.661 C 17.118 9.305 17.533 9.683 17.535 11.01 C 17.541 14.203 17.537 17.396 17.536 20.589 C 17.536 20.887 17.536 21.184 17.536 21.567 C 19.861 20.918 22.106 20.301 24.344 19.663 C 27.084 18.882 29.813 18.058 32.562 17.308 C 33.235 17.124 33.377 16.796 33.371 16.159 C 33.344 12.783 33.393 9.407 33.341 6.032 C 33.327 5.061 33.689 4.612 34.591 4.353 C 39.545 2.927 44.479 1.432 49.444 0.049 C 50.073 -0.126 50.845 0.217 51.625 0.337 L 51.625 0.337 Z " fill="rgb(219,45,84)"/></g></svg>