<?xml version="1.0" encoding="UTF-8" standalone="no"?>
<!-- Generator: Gravit.io -->
<svg xmlns="http://www.w3.org/2000/svg" xmlns:xlink="http://www.w3.org/1999/xlink" style="isolation:isolate" viewBox="0 0 450 100" width="450pt" height="100pt"><defs><clipPath id="_clipPath_j2YqtoIBx6B17zEna6WnoRVRwDhJGfnb"><rect width="450" height="100"/></clipPath></defs><g clip-path="url(#_clipPath_j2YqtoIBx6B17zEna6WnoRVRwDhJGfnb)"><rect width="450" height="100" style="fill:rgb(0,0,0)" fill-opacity="0"/><path d=" M 47.801 0.312 C 51.913 1.504 55.956 2.688 60.003 3.858 C 61.635 4.33 61.683 4.371 61.686 6.042 C 61.692 9.055 61.705 12.068 61.694 15.081 C 61.692 15.566 61.796 15.832 62.32 15.979 C 66.861 17.259 71.392 18.571 75.927 19.87 C 76.031 19.9 76.143 19.9 76.338 19.925 C 76.338 19.56 76.337 19.232 76.338 18.903 C 76.34 15.975 76.336 13.046 76.346 10.118 C 76.35 9.007 76.766 8.637 77.807 8.933 C 82.48 10.261 87.142 11.627 91.811 12.969 C 92.394 13.136 92.608 13.476 92.592 14.08 C 92.554 15.487 92.537 16.897 92.58 18.303 C 92.598 18.893 92.412 19.303 92.026 19.682 C 91.979 19.728 91.929 19.774 91.877 19.82 C 85.823 25.041 79.78 30.274 73.741 35.511 C 65.681 42.5 57.626 49.494 49.572 56.49 C 48.368 57.535 47.085 58.46 45.4 57.904 C 44.598 57.64 43.816 57.154 43.172 56.599 C 37.397 51.618 31.663 46.589 25.898 41.595 C 18.645 35.311 11.372 29.049 4.113 22.772 C 2.921 21.742 1.729 20.708 0.593 19.617 C 0.29 19.327 0.049 18.827 0.03 18.412 C -0.036 16.979 0.031 15.54 0.003 14.105 C -0.01 13.456 0.264 13.131 0.866 12.957 C 1.933 12.648 11.148 9.958 14.695 8.945 C 15.85 8.615 16.234 8.966 16.236 10.194 C 16.241 13.151 16.238 16.108 16.237 19.064 C 16.237 19.339 16.237 19.615 16.237 19.969 C 18.39 19.368 20.468 18.798 22.541 18.207 C 25.078 17.483 27.605 16.72 30.15 16.026 C 30.773 15.856 30.904 15.551 30.899 14.962 C 30.874 11.836 30.919 8.71 30.872 5.585 C 30.858 4.686 31.194 4.271 32.029 4.03 C 36.616 2.71 41.184 1.326 45.782 0.045 C 46.363 -0.117 47.079 0.201 47.801 0.312 L 47.801 0.312 Z " fill="rgb(219,45,84)"/><path d=" M 14.712 83.798 C 15.299 84.36 15.917 84.935 16.566 85.474 C 21.023 89.169 26.155 91.705 31.475 94.038 C 36.124 95.963 40.717 97.853 45.302 99.764 C 45.904 100.016 46.453 100.103 47.079 99.84 C 52.743 97.455 58.443 95.153 64.074 92.69 C 68.307 90.839 72.311 88.544 75.902 85.607 C 76.616 85.024 77.289 84.391 77.924 83.778 L 54.282 59.76 L 53.259 60.648 C 52.537 61.296 51.75 61.88 50.907 62.37 C 49.556 63.176 48.019 63.602 46.444 63.63 C 45.481 63.63 44.519 63.472 43.602 63.157 C 42.093 62.639 40.713 61.833 39.519 60.778 C 39.122 60.436 38.725 60.094 38.329 59.752 L 14.712 83.798 Z " fill="rgb(219,45,84)"/><path d=" M 34.138 56.127 C 26.454 63.956 18.787 71.767 11.016 79.685 C 10.503 78.902 10.073 78.327 9.727 77.705 C 7.892 74.401 6.962 70.9 6.999 67.072 C 7.095 57.082 7.062 64.683 7.025 54.693 C 7.023 54.134 6.636 53.467 6.229 53.039 C 4.585 51.303 2.891 49.612 1.158 47.965 C 0.337 47.185 -0.018 46.308 0.016 45.199 Q 0.021 45.04 0.029 26.581 C 0.184 26.72 0.342 26.855 0.5 26.991 L 9.37 34.648 L 22.259 45.796 L 29.546 52.12 C 31.076 53.457 32.607 54.792 34.138 56.127 Z " fill="rgb(219,45,84)"/><path d=" M 58.507 56.093 Q 70.011 67.821 75.787 73.707 L 75.787 73.707 C 77.747 75.688 79.664 77.628 81.643 79.63 C 84.158 76.069 85.555 72.287 85.552 68.04 C 85.545 57.819 85.532 65.191 85.497 54.97 C 85.494 54.205 85.727 53.628 86.265 53.101 C 88.055 51.348 89.836 49.584 91.587 47.792 C 91.965 47.405 92.434 46.896 92.466 46.417 C 92.515 45.681 92.525 27.351 92.525 26.603 L 77.38 39.713 L 58.507 56.093 Z " fill="rgb(219,45,84)"/><path d=" M 47.801 0.312 C 51.913 1.504 55.956 2.688 60.003 3.858 C 61.635 4.33 61.683 4.371 61.686 6.042 C 61.692 9.055 61.705 12.068 61.694 15.081 C 61.692 15.566 61.796 15.832 62.32 15.979 C 66.861 17.259 71.392 18.571 75.927 19.87 C 76.031 19.9 76.143 19.9 76.338 19.925 C 76.338 19.56 76.337 19.232 76.338 18.903 C 76.34 15.975 76.336 13.046 76.346 10.118 C 76.35 9.007 76.766 8.637 77.807 8.933 C 82.48 10.261 87.142 11.627 91.811 12.969 C 92.394 13.136 92.608 13.476 92.592 14.08 C 92.554 15.487 92.537 16.897 92.58 18.303 C 92.598 18.893 92.412 19.303 92.026 19.682 C 91.979 19.728 91.929 19.774 91.877 19.82 C 85.823 25.041 79.78 30.274 73.741 35.511 C 65.681 42.5 57.626 49.494 49.572 56.49 C 48.368 57.535 47.085 58.46 45.4 57.904 C 44.598 57.64 43.816 57.154 43.172 56.599 C 37.397 51.618 31.663 46.589 25.898 41.595 C 18.645 35.311 11.372 29.049 4.113 22.772 C 2.921 21.742 1.729 20.708 0.593 19.617 C 0.29 19.327 0.049 18.827 0.03 18.412 C -0.036 16.979 0.031 15.54 0.003 14.105 C -0.01 13.456 0.264 13.131 0.866 12.957 C 1.933 12.648 11.148 9.958 14.695 8.945 C 15.85 8.615 16.234 8.966 16.236 10.194 C 16.241 13.151 16.238 16.108 16.237 19.064 C 16.237 19.339 16.237 19.615 16.237 19.969 C 18.39 19.368 20.468 18.798 22.541 18.207 C 25.078 17.483 27.605 16.72 30.15 16.026 C 30.773 15.856 30.904 15.551 30.899 14.962 C 30.874 11.836 30.919 8.71 30.872 5.585 C 30.858 4.686 31.194 4.271 32.029 4.03 C 36.616 2.71 41.184 1.326 45.782 0.045 C 46.363 -0.117 47.079 0.201 47.801 0.312 Z " fill="rgb(219,45,84)"/><path d=" M 153.967 20.296 L 153.967 20.296 L 153.967 20.296 Q 161.341 20.296 165.74 21.595 L 165.74 21.595 L 165.74 21.595 Q 170.139 22.894 172.066 26.162 L 172.066 26.162 L 172.066 26.162 Q 173.993 29.429 173.993 35.379 L 173.993 35.379 L 173.993 35.379 Q 173.993 41.579 171.647 44.847 L 171.647 44.847 L 171.647 44.847 Q 169.301 48.115 163.938 48.617 L 163.938 48.617 L 163.938 48.953 L 163.938 48.953 Q 170.558 49.539 173.197 53.477 L 173.197 53.477 L 173.197 53.477 Q 175.837 57.415 175.837 64.37 L 175.837 64.37 L 175.837 64.37 Q 175.837 70.319 173.868 73.587 L 173.868 73.587 L 173.868 73.587 Q 171.898 76.855 167.667 78.154 L 167.667 78.154 L 167.667 78.154 Q 163.436 79.452 156.649 79.452 L 156.649 79.452 L 156.649 79.452 Q 151.37 79.452 147.432 79.411 L 147.432 79.411 L 147.432 79.411 Q 143.493 79.369 140.226 79.201 L 140.226 79.201 L 140.226 79.201 Q 136.958 79.033 133.439 78.782 L 133.439 78.782 L 134.612 71.157 L 134.612 71.157 Q 136.623 71.241 142.069 71.325 L 142.069 71.325 L 142.069 71.325 Q 147.515 71.409 154.889 71.409 L 154.889 71.409 L 154.889 71.409 Q 158.827 71.409 161.089 70.696 L 161.089 70.696 L 161.089 70.696 Q 163.352 69.984 164.315 68.015 L 164.315 68.015 L 164.315 68.015 Q 165.279 66.046 165.279 62.443 L 165.279 62.443 L 165.279 62.443 Q 165.279 58.421 164.274 56.284 L 164.274 56.284 L 164.274 56.284 Q 163.268 54.148 160.964 53.268 L 160.964 53.268 L 160.964 53.268 Q 158.66 52.388 154.47 52.388 L 154.47 52.388 L 134.528 52.388 L 134.528 45.266 L 154.386 45.266 L 154.386 45.266 Q 157.989 45.266 160.042 44.554 L 160.042 44.554 L 160.042 44.554 Q 162.095 43.841 163.017 41.998 L 163.017 41.998 L 163.017 41.998 Q 163.938 40.155 163.938 36.719 L 163.938 36.719 L 163.938 36.719 Q 163.938 33.284 162.975 31.44 L 162.975 31.44 L 162.975 31.44 Q 162.011 29.597 159.749 28.969 L 159.749 28.969 L 159.749 28.969 Q 157.486 28.34 153.465 28.34 L 153.465 28.34 L 153.465 28.34 Q 149.024 28.34 145.588 28.34 L 145.588 28.34 L 145.588 28.34 Q 142.153 28.34 139.471 28.382 L 139.471 28.382 L 139.471 28.382 Q 136.79 28.424 134.612 28.591 L 134.612 28.591 L 133.439 20.967 L 133.439 20.967 Q 136.623 20.631 139.513 20.506 L 139.513 20.506 L 139.513 20.506 Q 142.404 20.38 145.881 20.338 L 145.881 20.338 L 145.881 20.338 Q 149.359 20.296 153.967 20.296 Z  M 133.439 20.967 L 143.661 20.967 L 143.661 78.782 L 133.439 78.782 L 133.439 20.967 Z  M 185.389 37.641 L 195.527 37.641 L 195.527 65.459 L 195.527 65.459 Q 195.444 68.56 196.742 69.9 L 196.742 69.9 L 196.742 69.9 Q 198.041 71.241 200.974 71.241 L 200.974 71.241 L 200.974 71.241 Q 203.907 71.241 206.839 69.984 L 206.839 69.984 L 206.839 69.984 Q 209.772 68.727 213.961 66.214 L 213.961 66.214 L 214.967 72.246 L 214.967 72.246 Q 210.275 76.017 205.918 77.944 L 205.918 77.944 L 205.918 77.944 Q 201.56 79.871 196.868 79.871 L 196.868 79.871 L 196.868 79.871 Q 185.389 79.871 185.389 68.56 L 185.389 68.56 L 185.389 37.641 Z  M 212.956 37.641 L 223.095 37.641 L 223.095 78.782 L 215.051 78.782 L 213.961 70.822 L 212.956 69.649 L 212.956 37.641 Z  M 234.574 20.129 L 244.713 20.129 L 244.629 66.381 L 244.629 66.381 Q 244.629 68.727 245.97 69.942 L 245.97 69.942 L 245.97 69.942 Q 247.31 71.157 249.824 71.157 L 249.824 71.157 L 253.427 71.157 L 254.6 78.279 L 254.6 78.279 Q 253.678 78.698 252.044 79.033 L 252.044 79.033 L 252.044 79.033 Q 250.41 79.369 248.693 79.494 L 248.693 79.494 L 248.693 79.494 Q 246.975 79.62 245.718 79.62 L 245.718 79.62 L 245.718 79.62 Q 240.607 79.62 237.59 76.855 L 237.59 76.855 L 237.59 76.855 Q 234.574 74.09 234.574 68.895 L 234.574 68.895 L 234.574 20.129 Z  M 312.248 37.641 L 322.554 37.641 L 311.661 76.101 L 311.661 76.101 Q 311.326 77.274 310.321 78.028 L 310.321 78.028 L 310.321 78.028 Q 309.315 78.782 307.975 78.782 L 307.975 78.782 L 299.847 78.782 L 299.847 78.782 Q 298.506 78.782 297.417 77.944 L 297.417 77.944 L 297.417 77.944 Q 296.328 77.106 296.16 75.682 L 296.16 75.682 L 290.714 50.461 L 290.714 50.461 Q 290.379 48.785 290.169 47.109 L 290.169 47.109 L 290.169 47.109 Q 289.96 45.433 289.624 43.758 L 289.624 43.758 L 288.535 43.758 L 288.535 43.758 Q 288.284 45.433 287.991 47.109 L 287.991 47.109 L 287.991 47.109 Q 287.697 48.785 287.362 50.461 L 287.362 50.461 L 282 75.682 L 282 75.682 Q 281.748 77.106 280.701 77.944 L 280.701 77.944 L 280.701 77.944 Q 279.653 78.782 278.229 78.782 L 278.229 78.782 L 270.185 78.782 L 270.185 78.782 Q 268.844 78.782 267.839 78.028 L 267.839 78.028 L 267.839 78.028 Q 266.833 77.274 266.582 76.101 L 266.582 76.101 L 255.605 37.641 L 265.912 37.641 L 272.783 65.878 L 272.783 65.878 Q 273.118 67.47 273.411 69.104 L 273.411 69.104 L 273.411 69.104 Q 273.704 70.738 273.956 72.33 L 273.956 72.33 L 274.961 72.33 L 274.961 72.33 Q 275.38 70.738 275.673 69.104 L 275.673 69.104 L 275.673 69.104 Q 275.967 67.47 276.302 65.878 L 276.302 65.878 L 281.748 40.741 L 281.748 40.741 Q 282 39.4 282.963 38.521 L 282.963 38.521 L 282.963 38.521 Q 283.927 37.641 285.435 37.641 L 285.435 37.641 L 292.809 37.641 L 292.809 37.641 Q 294.149 37.641 295.155 38.521 L 295.155 38.521 L 295.155 38.521 Q 296.16 39.4 296.412 40.825 L 296.412 40.825 L 301.858 65.878 L 301.858 65.878 Q 302.109 67.47 302.486 69.062 L 302.486 69.062 L 302.486 69.062 Q 302.863 70.654 303.115 72.33 L 303.115 72.33 L 304.12 72.33 L 304.12 72.33 Q 304.455 70.654 304.707 69.104 L 304.707 69.104 L 304.707 69.104 Q 304.958 67.554 305.377 65.878 L 305.377 65.878 L 312.248 37.641 Z  M 350.289 36.635 L 350.289 36.635 L 350.289 36.635 Q 355.233 36.635 358.668 37.934 L 358.668 37.934 L 358.668 37.934 Q 362.103 39.233 363.821 42.333 L 363.821 42.333 L 363.821 42.333 Q 365.539 45.433 365.539 50.88 L 365.539 50.88 L 365.539 78.782 L 357.495 78.782 L 356.071 69.9 L 355.316 68.727 L 355.316 50.796 L 355.316 50.796 Q 355.316 47.528 353.808 46.062 L 353.808 46.062 L 353.808 46.062 Q 352.3 44.595 348.027 44.595 L 348.027 44.595 L 348.027 44.595 Q 344.843 44.595 340.025 44.847 L 340.025 44.847 L 340.025 44.847 Q 335.207 45.098 330.347 45.517 L 330.347 45.517 L 329.425 38.563 L 329.425 38.563 Q 332.358 37.976 336.045 37.557 L 336.045 37.557 L 336.045 37.557 Q 339.731 37.138 343.502 36.887 L 343.502 36.887 L 343.502 36.887 Q 347.273 36.635 350.289 36.635 Z  M 339.48 53.477 L 361.182 53.477 L 361.098 59.762 L 342.245 59.762 L 342.245 59.762 Q 339.731 59.845 338.642 61.102 L 338.642 61.102 L 338.642 61.102 Q 337.553 62.359 337.553 64.538 L 337.553 64.538 L 337.553 66.8 L 337.553 66.8 Q 337.553 69.314 338.893 70.571 L 338.893 70.571 L 338.893 70.571 Q 340.234 71.827 343.083 71.827 L 343.083 71.827 L 343.083 71.827 Q 345.345 71.827 348.11 70.948 L 348.11 70.948 L 348.11 70.948 Q 350.876 70.068 353.599 68.308 L 353.599 68.308 L 353.599 68.308 Q 356.322 66.549 358.5 64.119 L 358.5 64.119 L 358.5 69.398 L 358.5 69.398 Q 357.663 70.654 356.071 72.372 L 356.071 72.372 L 356.071 72.372 Q 354.479 74.09 352.174 75.766 L 352.174 75.766 L 352.174 75.766 Q 349.87 77.441 346.895 78.531 L 346.895 78.531 L 346.895 78.531 Q 343.921 79.62 340.318 79.62 L 340.318 79.62 L 340.318 79.62 Q 336.631 79.62 333.698 78.321 L 333.698 78.321 L 333.698 78.321 Q 330.766 77.023 329.09 74.467 L 329.09 74.467 L 329.09 74.467 Q 327.414 71.911 327.414 68.141 L 327.414 68.141 L 327.414 63.784 L 327.414 63.784 Q 327.414 58.924 330.64 56.201 L 330.64 56.201 L 330.64 56.201 Q 333.866 53.477 339.48 53.477 L 339.48 53.477 Z  M 376.599 37.641 L 384.476 37.641 L 385.816 45.685 L 386.738 46.858 L 386.738 78.782 L 376.599 78.782 L 376.599 37.641 Z  M 402.574 36.635 L 404.585 36.635 L 403.58 46.02 L 400.647 46.02 L 400.647 46.02 Q 397.379 46.02 394.028 47.109 L 394.028 47.109 L 394.028 47.109 Q 390.676 48.198 385.649 50.377 L 385.649 50.377 L 384.978 44.428 L 384.978 44.428 Q 389.335 40.741 393.86 38.688 L 393.86 38.688 L 393.86 38.688 Q 398.385 36.635 402.574 36.635 L 402.574 36.635 Z  M 437.18 37.641 L 448.659 37.641 L 436.929 52.304 L 436.929 52.304 Q 436.258 53.31 435.253 54.273 L 435.253 54.273 L 435.253 54.273 Q 434.247 55.237 433.493 55.74 L 433.493 55.74 L 433.493 55.907 L 433.493 55.907 Q 434.247 56.41 435.253 57.541 L 435.253 57.541 L 435.253 57.541 Q 436.258 58.672 436.929 59.845 L 436.929 59.845 L 450 78.782 L 438.521 78.782 L 423.522 55.488 L 437.18 37.641 Z  M 411.456 20.129 L 421.595 20.129 L 421.679 45.182 L 421.679 45.182 Q 421.679 47.947 421.385 50.461 L 421.385 50.461 L 421.385 50.461 Q 421.092 52.975 420.589 55.572 L 420.589 55.572 L 420.589 55.572 Q 421.008 58.002 421.302 60.6 L 421.302 60.6 L 421.302 60.6 Q 421.595 63.197 421.595 65.459 L 421.595 65.459 L 421.595 78.782 L 411.456 78.782 L 411.456 20.129 Z  M 418.327 52.472 L 427.879 52.472 L 427.879 59.008 L 418.327 59.008 L 418.327 52.472 Z " fill="rgb(255,255,255)"/></g></svg>